<?xml version="1.0" encoding="iso-8859-1"?>
<!-- Uploaded to: SVG Repo, www.svgrepo.com, Generator: SVG Repo Mixer Tools -->
<svg height="800px" width="800px" version="1.1" id="Layer_1" xmlns="http://www.w3.org/2000/svg" xmlns:xlink="http://www.w3.org/1999/xlink" 
	 viewBox="0 0 512.001 512.001" xml:space="preserve">
<circle style="fill:#875426;" cx="255.996" cy="255.996" r="19.692"/>
<path style="fill:#996632;" d="M256,285.538c-16.314,0-29.539-13.225-29.539-29.539S239.686,226.46,256,226.46
	s29.539,13.225,29.539,29.539S272.314,285.538,256,285.538z M256,236.307c-10.876,0-19.692,8.817-19.692,19.692
	c0,10.876,8.817,19.692,19.692,19.692c10.876,0,19.692-8.817,19.692-19.692C275.692,245.124,266.877,236.307,256,236.307z"/>
<path style="fill:#FFF8EF;" d="M177.231,346.486l-78.769-90.486l78.769-90.486c18.22-22.048,44.716-35.617,73.256-37.514
	c1.837-0.098,3.678-0.098,5.514,0c1.902-0.098,3.809-0.098,5.711,0c28.463,1.973,54.871,15.532,73.058,37.514l78.769,90.486
	l-78.769,90.486c-18.219,22.048-44.716,35.617-73.256,37.514c-1.837,0.098-3.678,0.098-5.513,0c-1.902,0.098-3.809,0.098-5.711,0
	C221.827,382.027,195.419,368.467,177.231,346.486z M157.539,255.999c0,54.379,44.083,98.461,98.461,98.461
	s98.461-44.082,98.461-98.461S310.379,157.538,256,157.538S157.539,201.621,157.539,255.999z"/>
<g>
	<path style="fill:#42210B;" d="M512.001,433.231v68.923c0,5.438-4.408,9.847-9.847,9.847H433.23v-19.692h59.077v-59.077h19.694
		V433.231z"/>
	<path style="fill:#42210B;" d="M512.001,9.847V78.77h-19.692V19.692h-59.077V0h68.923C507.592,0,512.001,4.408,512.001,9.847z"/>
</g>
<path style="fill:#E0CBB5;" d="M334.769,165.514c-18.189-21.981-44.596-35.541-73.058-37.514
	c31.964,1.257,62.261,14.593,84.776,37.317l90.486,90.683l-90.486,90.486c-22.533,22.842-52.911,36.253-84.972,37.514
	c28.539-1.896,55.036-15.466,73.256-37.514l78.769-90.486L334.769,165.514z"/>
<path style="fill:#CC9966;" d="M206.77,255.999c0,27.189,22.042,49.231,49.231,49.231s49.231-22.042,49.231-49.231
	s-22.042-49.231-49.231-49.231S206.77,228.81,206.77,255.999z M177.231,255.999c0-43.503,35.266-78.769,78.769-78.769
	s78.769,35.266,78.769,78.769S299.503,334.768,256,334.768S177.231,299.503,177.231,255.999z"/>
<g>
	<path style="fill:#42210B;" d="M226.462,255.999c0,16.314,13.225,29.539,29.539,29.539s29.539-13.225,29.539-29.539
		s-13.225-29.539-29.539-29.539C239.687,226.462,226.462,239.687,226.462,255.999z M256,305.231
		c-27.189,0-49.231-22.042-49.231-49.231s22.042-49.231,49.231-49.231s49.231,22.042,49.231,49.231S283.189,305.231,256,305.231z"/>
	<path style="fill:#42210B;" d="M177.231,255.999c0,43.503,35.266,78.769,78.769,78.769s78.769-35.266,78.769-78.769
		S299.503,177.23,256,177.23S177.231,212.497,177.231,255.999z M256,354.461c-54.379,0-98.461-44.082-98.461-98.461
		s44.083-98.461,98.461-98.461s98.461,44.083,98.461,98.461S310.379,354.461,256,354.461z"/>
</g>
<path style="fill:#E0CBB5;" d="M165.514,165.514c22.533-22.842,52.911-36.253,84.972-37.514
	c-28.539,1.896-55.036,15.466-73.256,37.514l-78.769,90.486l78.769,90.486c18.188,21.981,44.596,35.542,73.058,37.514
	c-31.964-1.257-62.261-14.593-84.776-37.317l-90.486-90.683L165.514,165.514z"/>
<g>
	<path style="fill:#42210B;" d="M78.77,492.308V512H9.847c-5.438,0-9.847-4.408-9.847-9.847V433.23h19.692v59.077H78.77V492.308z"/>
	<path style="fill:#42210B;" d="M151.533,151.533c57.659-57.695,151.173-57.726,208.868-0.067c0.022,0.022,0.045,0.045,0.067,0.067
		l97.477,97.477c3.861,3.829,3.886,10.064,0.057,13.924c-0.019,0.019-0.038,0.038-0.057,0.057l-97.477,97.477
		c-57.659,57.695-151.173,57.726-208.868,0.067c-0.022-0.022-0.045-0.045-0.067-0.067l-97.477-97.477
		c-3.861-3.829-3.886-10.064-0.057-13.924c0.019-0.019,0.038-0.038,0.057-0.057L151.533,151.533z M250.486,128
		c-32.033,1.207-62.409,14.547-84.972,37.317l-90.486,90.683l90.486,90.486c22.483,22.797,52.784,36.205,84.776,37.514
		c1.902,0.098,3.809,0.098,5.711,0c1.837,0.098,3.678,0.098,5.513,0c32.033-1.207,62.409-14.547,84.972-37.317l90.486-90.683
		l-90.486-90.486c-22.483-22.797-52.784-36.205-84.776-37.514c-1.902-0.098-3.809-0.098-5.711,0
		C254.164,127.902,252.324,127.902,250.486,128z"/>
	<path style="fill:#42210B;" d="M9.847,0h68.924v19.692H19.693v59.077H0.001V9.847C0.001,4.408,4.409,0,9.847,0z"/>
</g>
</svg>